<?xml version="1.0"?>
<svg xmlns="http://www.w3.org/2000/svg" height="512px" viewBox="0 0 128 128" width="512px" class=""><g><g><circle cx="47.168" cy="47.168" fill="#3ea2e5" r="40.86" data-original="#3EA2E5" class="" style="fill:#00A1DB" data-old_color="#3ea2e5"/><circle cx="47.168" cy="47.168" fill="#dfeef4" r="30.01" data-original="#DFEEF4" class=""/><path d="m47.168 25.436a10.623 10.623 0 0 0 -10.623 10.623c-.061 10.135 10.623 22.7 10.623 22.7s10.684-12.569 10.623-22.7a10.623 10.623 0 0 0 -10.623-10.623zm0 14.361a3.738 3.738 0 1 1 3.738-3.738 3.737 3.737 0 0 1 -3.738 3.741z" fill="#f45858" data-original="#F45858" class="active-path" style="fill:#FFFFFF" data-old_color="#f45858"/><path d="m51.76 52.408a63.3 63.3 0 0 1 -4.591 6.355 63.3 63.3 0 0 1 -4.591-6.355c-7.486.755-12.995 3.314-12.995 6.355 0 3.635 7.874 6.582 17.587 6.582s17.586-2.945 17.586-6.582c0-3.041-5.51-5.6-12.996-6.355z" fill="#3ea2e5" data-original="#3EA2E5" class="" style="fill:#00A1DB" data-old_color="#3ea2e5"/><path d="m118.951 105.714-37.034-37.034-.038.039a40.716 40.716 0 0 1 -13.16 13.16l-.039.038 37.034 37.034a9.361 9.361 0 0 0 13.237 0 9.361 9.361 0 0 0 0-13.237z" fill="#fc883a" data-original="#FC883A" class="" style="fill:#00A1DB" data-old_color="#fc883a"/><g><path d="m24.71 24.71a31.761 31.761 0 1 0 22.458-9.3 31.553 31.553 0 0 0 -22.458 9.3zm50.719 22.458a28.261 28.261 0 1 1 -8.278-19.983 28.074 28.074 0 0 1 8.278 19.983z" data-original="#000000" class="" style="fill:#000000"/><path d="m87.988 98.751a1.75 1.75 0 0 0 -2.474 2.475l3.18 3.18a1.75 1.75 0 1 0 2.475-2.474z" data-original="#000000" class="" style="fill:#000000"/><path d="m120.188 104.477-36.08-36.077a42.649 42.649 0 0 0 -14.894-57.7 1.75 1.75 0 0 0 -1.814 2.987 39.11 39.11 0 1 1 -7.822-3.617 1.75 1.75 0 0 0 1.108-3.32 42.6 42.6 0 1 0 7.714 77.358l11 11a1.749 1.749 0 0 0 2.474-2.474l-10.448-10.446a42.047 42.047 0 0 0 10.762-10.762l35.526 35.525a7.61 7.61 0 1 1 -10.763 10.762l-9.957-9.956a1.749 1.749 0 0 0 -2.474 2.474l9.957 9.957a11.109 11.109 0 1 0 15.711-15.711z" data-original="#000000" class="" style="fill:#000000"/><path d="m34.8 36.048c-.031 5.049 2.342 10.542 4.9 14.985-7.3 1.219-11.87 4.134-11.87 7.73 0 5.47 9.729 8.332 19.338 8.332s19.338-2.862 19.338-8.332c0-3.6-4.574-6.511-11.86-7.73 2.554-4.441 4.926-9.931 4.895-14.974a12.373 12.373 0 0 0 -24.741-.011zm28.206 22.715c0 1.64-5.59 4.832-15.838 4.832s-15.838-3.195-15.838-4.832c0-1.38 3.6-3.625 10.36-4.489a62.2 62.2 0 0 0 4.145 5.626 1.748 1.748 0 0 0 2.666 0 62.37 62.37 0 0 0 4.145-5.622c6.762.86 10.36 3.105 10.36 4.485zm-6.965-22.693c.044 7.282-6.1 16.211-8.874 19.872-2.776-3.658-8.916-12.58-8.872-19.883a8.873 8.873 0 1 1 17.746.011z" data-original="#000000" class="" style="fill:#000000"/><path d="m41.68 36.059a5.488 5.488 0 1 0 5.488-5.488 5.494 5.494 0 0 0 -5.488 5.488zm7.476 0a1.988 1.988 0 1 1 -1.988-1.988 1.99 1.99 0 0 1 1.988 1.988z" data-original="#000000" class="" style="fill:#000000"/><path d="m110.76 108.765a1.751 1.751 0 0 0 1.24-2.988l-11.831-11.828a1.75 1.75 0 1 0 -2.475 2.475l11.828 11.828a1.745 1.745 0 0 0 1.238.513z" data-original="#000000" class="" style="fill:#000000"/><path d="m94.368 88.148-3.56-3.561a1.75 1.75 0 0 0 -2.475 2.475l3.561 3.561a1.75 1.75 0 1 0 2.474-2.475z" data-original="#000000" class="" style="fill:#000000"/></g></g></g> </svg>
