<?xml version="1.0" encoding="iso-8859-1"?>
<!-- Generator: Adobe Illustrator 19.0.0, SVG Export Plug-In . SVG Version: 6.00 Build 0)  -->
<svg version="1.1" id="Capa_1" xmlns="http://www.w3.org/2000/svg" xmlns:xlink="http://www.w3.org/1999/xlink" x="0px" y="0px"
	 viewBox="0 0 496 496" style="enable-background:new 0 0 496 496;" xml:space="preserve">
<polygon style="fill:#39C3FC;" points="312,496 312,384 280,384 352,304 424,384 392,384 392,496 "/>
<polygon style="fill:#148CE0;" points="392,496 392,384 424,384 352,304 352,496 "/>
<polygon style="fill:#39C3FC;" points="104,272 104,384 72,384 144,464 216,384 184,384 184,272 "/>
<polygon style="fill:#148CE0;" points="184,272 184,384 216,384 144,464 144,272 "/>
<rect x="72" y="8" style="fill:#B6C1CE;" width="352" height="240"/>
<polygon style="fill:#8C95A4;" points="192,144 72,32 72,56 192,168 304,168 424,56 424,32 304,144 "/>
<g>
	<polygon style="fill:#ECECEC;" points="424,32 424,8 72,8 72,32 192,144 304,144 	"/>
	<polygon style="fill:#ECECEC;" points="424,248 72,248 192,136 304,136 	"/>
</g>
<circle style="fill:#39C3FC;" cx="248" cy="128" r="64"/>
<path style="fill:#148CE0;" d="M248,112c-8.824,0-16,7.176-16,16s7.176,16,16,16h16v-16C264,119.176,256.824,112,248,112z"/>
<path d="M432,0H64v256h368V0z M176.272,140.256L80,229.648V50.408L176.272,140.256z M182.032,156.752
	C193.152,182.176,218.52,200,248,200h24v-16h-24c-30.88,0-56-25.12-56-56s25.12-56,56-56s56,25.12,56,56v20c0,6.616-5.384,12-12,12
	s-12-5.384-12-12v-20c0-17.648-14.352-32-32-32s-32,14.352-32,32s14.352,32,32,32h18.704c4.504,9.456,14.152,16,25.296,16
	c11.2,0,20.808-6.648,25.288-16.176L403.624,240H92.376L182.032,156.752z M264,128v16h-16c-8.824,0-16-7.176-16-16s7.176-16,16-16
	S264,119.176,264,128z M320,140.512v-0.504l96-89.6v179.248L320,140.512z M416,16v12.528l-96.664,90.216
	C314.768,83.408,284.56,56,248,56s-66.768,27.408-71.336,62.744L80,28.528V16H416z"/>
<polygon points="352,292.04 262.04,392 304,392 304,464 320,464 320,376 297.96,376 352,315.96 406.04,376 384,376 384,464 400,464 
	400,392 441.96,392 "/>
<polygon points="192,304 176,304 176,392 198.04,392 144,452.04 89.96,392 112,392 112,304 96,304 96,376 54.04,376 144,475.96 
	233.96,376 192,376 "/>
<rect x="96" y="272" width="16" height="16"/>
<rect x="176" y="272" width="16" height="16"/>
<rect x="304" y="480" width="16" height="16"/>
<rect x="384" y="480" width="16" height="16"/>
<g>
</g>
<g>
</g>
<g>
</g>
<g>
</g>
<g>
</g>
<g>
</g>
<g>
</g>
<g>
</g>
<g>
</g>
<g>
</g>
<g>
</g>
<g>
</g>
<g>
</g>
<g>
</g>
<g>
</g>
</svg>
